<svg width="56" height="56" viewBox="0 0 56 56" fill="none" xmlns="http://www.w3.org/2000/svg">
<rect width="56" height="56" rx="28" fill="#17AC82"/>
<g clip-path="url(#clip0_243_447)" class="isotipo">
<path fill-rule="evenodd" clip-rule="evenodd" d="M42.5294 30.8089C42.5361 30.7978 42.5451 30.7844 42.5518 30.7733C43.2718 29.5267 43.6374 28.1089 43.6374 26.5644C43.6374 26.4556 43.6374 26.3444 43.6306 26.2378C43.6329 26.1933 43.6351 26.1489 43.6351 26.1044V15.7978C43.6351 13.7022 41.9149 12 39.7999 12H38.5238C37.196 12 36.1172 13.0667 36.1172 14.3844V18.3333C35.8548 18.3111 35.5879 18.3 35.3166 18.3C33.7578 18.3 32.3291 18.6622 31.0664 19.3778C29.8037 20.0933 28.7922 21.0911 28.0588 22.3422C27.7807 22.8178 27.5542 23.3178 27.3815 23.84C26.9935 23.5089 26.5719 23.2133 26.1166 22.9533C24.8561 22.24 23.4342 21.8778 21.8911 21.8778C20.3481 21.8778 18.9015 22.24 17.641 22.9556C16.3783 23.6711 15.3668 24.6689 14.6334 25.92C14.463 26.2089 14.3127 26.5111 14.1804 26.82C13.0164 27.2533 12.1865 28.3667 12.1865 29.6711V30.5844C12.1865 31.8822 13.0096 32.9911 14.1669 33.4289C14.3015 33.7511 14.4585 34.0644 14.6334 34.3644C15.0596 35.0911 15.5844 35.7311 16.1944 36.2822C15.8311 36.8511 15.636 37.5244 15.6494 38.2156C15.6696 39.1489 16.0755 40.0333 16.7641 40.6422C18.4933 42.1711 20.5858 43.2156 22.8174 43.6644C23.8603 43.8733 24.9279 43.9756 26.0829 43.9756C26.8455 43.9756 27.6574 43.9289 28.4939 43.8356C32.3022 43.4133 35.8077 42.0333 38.6337 39.8444C40.4369 38.4489 41.9261 36.66 42.9398 34.6711C43.606 33.3667 43.3996 31.8733 42.5047 30.8422C42.5115 30.8311 42.5182 30.8178 42.5272 30.8067L42.5294 30.8089Z" fill="#FEFEFE"/>
<path d="M39.5709 32.0798C39.8624 31.9976 40.1831 32.0354 40.4299 32.182C40.9031 32.4665 41.0623 33.0754 40.7954 33.5954C39.9387 35.2732 38.6805 36.7843 37.1531 37.9665C34.6793 39.882 31.591 41.0932 28.2268 41.4665C27.4777 41.5509 26.7645 41.5932 26.0826 41.5932C25.0958 41.5932 24.1718 41.5043 23.2948 41.3287C21.4804 40.9643 19.7781 40.1109 18.3674 38.862C18.1723 38.6887 18.0624 38.442 18.0579 38.1643C18.0512 37.8643 18.17 37.5687 18.3764 37.3709C18.7778 36.9865 19.4103 36.9909 19.8499 37.3798C21.1193 38.5043 22.7364 39.2087 24.5261 39.422C27.1412 39.7332 29.9986 39.3087 32.5711 38.2287C35.4912 37.002 37.7048 35.0398 38.9743 32.5532C39.0909 32.3243 39.304 32.1554 39.5731 32.0776L39.5709 32.0798Z" fill="#0551D8"/>
<path d="M41.2152 26.1048H41.2287V15.8003C41.2287 15.0181 40.5872 14.3848 39.8 14.3848H38.5239V21.5537C38.4656 21.5181 38.4095 21.4803 38.3512 21.447C37.5684 21.0025 36.696 20.7537 35.7361 20.6981L35.3189 20.687C34.193 20.687 33.1613 20.9403 32.2642 21.447C31.3693 21.9559 30.6628 22.6537 30.1425 23.5403C29.6222 24.427 29.3643 25.4359 29.3643 26.5648C29.3643 27.6959 29.6244 28.7025 30.1425 29.5914C30.6628 30.4781 31.3693 31.1759 32.2642 31.6825C33.1591 32.1914 34.1773 32.4448 35.3189 32.4448C36.4605 32.4448 37.4563 32.1914 38.3512 31.6825C39.2461 31.1759 39.9503 30.4781 40.4616 29.5914C40.973 28.7048 41.2287 27.6959 41.2287 26.5648C41.2287 26.4092 41.2242 26.2559 41.2152 26.1048ZM35.3189 30.1048C34.6976 30.1048 34.1392 29.947 33.6413 29.6337C33.1434 29.3181 32.7576 28.8959 32.484 28.367C32.2104 27.8381 32.0713 27.2359 32.0713 26.5648C32.0713 25.8937 32.2081 25.2892 32.484 24.7514C32.7576 24.2159 33.1434 23.7937 33.6413 23.4848C34.1392 23.1759 34.6976 23.0225 35.3189 23.0225C35.6643 23.0225 35.9873 23.0759 36.2923 23.1714C36.2923 23.1714 38.6764 24.2048 38.6158 26.4048C38.5373 29.3048 36.3551 29.927 36.3551 29.927C36.0321 30.0403 35.689 30.1025 35.3167 30.1025L35.3189 30.1048Z" fill="#0551D8"/>
<path class="pupil-right" d="M34.2327 25.5091L35.8116 25.9513L34.125 26.7936C34.208 28.4869 35.1634 29.8336 36.3543 29.9313C36.3543 29.9313 38.6532 29.5424 38.6151 26.4091C38.5815 23.7624 36.2915 23.1758 36.2915 23.1758C35.3249 23.2913 34.522 24.2358 34.2349 25.5113L34.2327 25.5091Z" fill="#0551D8"/>
<path d="M28.4197 29.0227L28.2851 29.0094H27.6504C27.5338 28.3271 27.3095 27.6938 26.9753 27.1138C26.4617 26.2271 25.7575 25.5294 24.8648 25.0227C23.9699 24.516 22.9584 24.2627 21.8326 24.2627C20.7067 24.2627 19.675 24.516 18.7779 25.0227C17.883 25.5316 17.1765 26.2294 16.6562 27.1138C16.3175 27.6938 16.091 28.3271 15.9721 29.0094H15.1983C14.8305 29.0094 14.5345 29.3049 14.5322 29.6694V30.5827C14.5322 30.9471 14.8305 31.2427 15.1983 31.2427H15.9676L16.017 31.5005C16.1426 32.096 16.3556 32.6538 16.6562 33.1671C17.1765 34.0538 17.883 34.7516 18.7779 35.2583C19.6727 35.7671 20.691 36.0205 21.8326 36.0205C22.9741 36.0205 23.9699 35.7671 24.8648 35.2583C25.7597 34.7516 26.4639 34.0538 26.9753 33.1671C27.314 32.5805 27.5405 31.9382 27.6549 31.2427H28.2851C28.6552 31.2427 28.9557 30.9449 28.9557 30.5783V29.676C28.9557 29.356 28.7247 29.0871 28.4197 29.0249V29.0227ZM22.9943 33.4671C22.64 33.6094 22.2542 33.6827 21.837 33.6827C21.2158 33.6827 20.6551 33.5249 20.1572 33.2116C19.6593 32.896 19.2713 32.4738 18.9976 31.9449C18.724 31.416 18.585 30.8138 18.585 30.1427C18.585 29.4716 18.7218 28.8671 18.9976 28.3294C19.2713 27.7916 19.6593 27.3716 20.1572 27.0627C20.6551 26.7538 21.2135 26.6005 21.8348 26.6005L22.0254 26.6071C22.2138 26.6183 22.3955 26.6471 22.5704 26.6871C22.5704 26.6871 24.7661 27.2049 25.0599 29.716C25.3784 32.4338 23.1423 33.4027 23.1423 33.4027C23.084 33.4294 22.9921 33.4694 22.9921 33.4694L22.9943 33.4671Z" fill="#0551D8"/>
<path class="pupil-left" d="M22.6686 26.6868C21.6751 26.9335 20.8878 27.9801 20.6815 29.3157L22.2088 29.7201L20.6523 30.4601C20.8116 32.1223 21.8545 33.4068 23.1217 33.4068C23.1508 33.4068 24.0592 33.1579 24.8845 31.8335C25.1402 31.1601 25.1693 30.2001 25.1604 29.6735C24.649 26.949 22.6709 26.6846 22.6709 26.6846L22.6686 26.6868Z" fill="#0551D8"/>
</g>
<defs>
<clipPath id="clip0_243_447">
<rect width="31.6235" height="32" fill="white" transform="translate(12.1885 12)"/>
</clipPath>
</defs>
</svg>
