<svg width="32" height="32" viewBox="0 0 32 32" fill="none" xmlns="http://www.w3.org/2000/svg">
<g clip-path="url(#clip0_250_475)">
<path d="M30.5141 18.788C31.229 17.5395 31.591 16.1215 31.591 14.5754C31.591 14.4654 31.5889 14.3555 31.5847 14.2477C31.5875 14.2042 31.5882 14.1594 31.5882 14.1153V3.80157C31.5882 1.70507 29.8825 0 27.786 0H26.5213C25.2035 0 24.1356 1.06856 24.1356 2.3857V6.33852C23.8752 6.31611 23.6112 6.30561 23.3423 6.30561C21.7962 6.30561 20.3789 6.66833 19.1283 7.38327C17.8762 8.10031 16.8735 9.09814 16.1467 10.3495C15.8708 10.8249 15.6467 11.3256 15.4744 11.848C15.09 11.5175 14.672 11.2206 14.2203 10.9615C12.9711 10.2465 11.5608 9.88451 10.0294 9.88451C8.49801 9.88451 7.06603 10.2472 5.81541 10.9622C4.56339 11.6792 3.56066 12.677 2.83381 13.9284C2.66576 14.2183 2.51591 14.5194 2.38566 14.8296C1.23238 15.263 0.408203 16.3778 0.408203 17.6823V18.5961C0.408203 19.8951 1.22538 21.0056 2.37236 21.4433C2.5061 21.7661 2.66086 22.0791 2.83521 22.3795C3.25816 23.1077 3.77773 23.7477 4.38203 24.2988C4.02141 24.8688 3.82745 25.5417 3.84145 26.2343C3.86036 27.1684 4.26299 28.0535 4.94572 28.6627C6.65989 30.1927 8.73539 31.2388 10.9474 31.6884C11.9824 31.8978 13.0411 32 14.1846 32C14.9416 32 15.7461 31.9531 16.5759 31.86C20.3523 31.4363 23.8289 30.0555 26.6306 27.8665C28.419 26.4696 29.8958 24.6798 30.9013 22.6897C31.5623 21.3838 31.3565 19.8895 30.4707 18.8587C30.4847 18.8349 30.5001 18.8118 30.5141 18.788Z" fill="#5AC5A7"/>
<path d="M27.559 20.0955C27.8488 20.0128 28.1661 20.0512 28.4098 20.1982V20.2001C28.8802 20.4851 29.0362 21.0924 28.7723 21.6133C27.9237 23.2916 26.6749 24.805 25.1619 25.987C22.7082 27.9035 19.6472 29.1153 16.3098 29.4899C15.5663 29.5732 14.8605 29.6155 14.1849 29.6155C13.2059 29.6155 12.2903 29.5274 11.4214 29.351C9.62324 28.9854 7.93377 28.1318 6.53476 26.8834C6.3422 26.7111 6.23299 26.4638 6.22739 26.1858C6.22114 25.8855 6.33868 25.5896 6.54237 25.3922C6.93941 25.0078 7.56757 25.0114 8.00312 25.4008C9.2627 26.5251 10.866 27.2317 12.6394 27.4439C15.2331 27.7541 18.0664 27.3301 20.616 26.2496C23.5112 25.0228 25.7069 23.0588 26.9652 20.5703C27.0814 20.3407 27.2923 20.1718 27.559 20.0955Z" fill="#0551D8"/>
<path fill-rule="evenodd" clip-rule="evenodd" d="M10.0301 12.2712C11.1462 12.2712 12.1484 12.5249 13.0363 13.0325C13.9233 13.5408 14.6215 14.2391 15.1298 15.1261C15.4617 15.7058 15.684 16.3393 15.7988 17.0227H16.4279L16.5611 17.036C16.864 17.0979 17.092 17.3667 17.0921 17.6878V18.5909C17.0921 18.9577 16.7946 19.2559 16.4279 19.2561H15.8026C15.6892 19.9513 15.4666 20.5941 15.1298 21.1822C14.6215 22.07 13.9234 22.7681 13.0363 23.2758C12.1484 23.7835 11.161 24.038 10.0301 24.038C8.89923 24.038 7.88989 23.7841 7.00201 23.2758C6.11424 22.7681 5.41329 22.07 4.89797 21.1822C4.59897 20.6675 4.38942 20.1109 4.26419 19.514L4.21565 19.2561H3.4534C3.0895 19.256 2.79418 18.9605 2.79393 18.5966V17.6821C2.79405 17.3182 3.08942 17.0227 3.4534 17.0227H4.22041C4.33666 16.3393 4.56117 15.7058 4.89797 15.1261C5.41331 14.239 6.11425 13.5408 7.00201 13.0325C7.88989 12.5248 8.91393 12.2712 10.0301 12.2712ZM10.031 14.6112C9.41482 14.6112 8.8603 14.7656 8.36664 15.0737C7.87228 15.3811 7.48876 15.8033 7.21708 16.3403C6.94483 16.8766 6.80885 17.4814 6.80883 18.1541C6.80883 18.8271 6.94469 19.429 7.21708 19.9584C7.48876 20.4877 7.87302 20.91 8.36664 21.225C8.86094 21.54 9.41658 21.697 10.032 21.697C10.4459 21.697 10.8284 21.6249 11.1806 21.482L11.33 21.4163C11.2901 21.4191 11.2507 21.4249 11.2101 21.4249C9.95389 21.4249 8.91984 20.1395 8.76156 18.4758L10.3051 17.7345L8.79106 17.3291C8.997 15.9918 9.77742 14.945 10.7619 14.6978C10.587 14.6574 10.4074 14.6287 10.2204 14.617L10.031 14.6112Z" fill="#0551D8"/>
<path fill-rule="evenodd" clip-rule="evenodd" d="M27.7864 2.38572C28.5686 2.38572 29.2034 3.02053 29.2034 3.80269V14.1145H29.1901C29.1992 14.2656 29.2044 14.419 29.2044 14.5751C29.2044 15.7066 28.9507 16.716 28.4431 17.6031C27.9348 18.4909 27.2365 19.1891 26.3495 19.6967C25.4617 20.2044 24.4741 20.4589 23.3433 20.459C22.2124 20.459 21.2031 20.2051 20.3152 19.6967C19.4274 19.1891 18.7265 18.491 18.2112 17.6031C17.6958 16.7153 17.4385 15.706 17.4385 14.5751C17.4385 13.4444 17.696 12.4357 18.2112 11.548C18.7266 10.6608 19.4273 9.96181 20.3152 9.45344C21.2031 8.94583 22.2272 8.69214 23.3433 8.69214L23.7563 8.70356C24.708 8.75915 25.5726 9.00923 26.3495 9.45344C26.4088 9.48696 26.4645 9.5244 26.5217 9.56002V2.38572H27.7864ZM23.3433 11.0322C22.7273 11.0323 22.1725 11.1866 21.6789 11.4947C21.1848 11.8021 20.8019 12.2244 20.5303 12.7613C20.258 13.2975 20.1221 13.9023 20.1221 14.5751C20.1221 15.248 20.2579 15.85 20.5303 16.3794C20.8019 16.9086 21.1854 17.3309 21.6789 17.646C22.1732 17.961 22.728 18.1179 23.3433 18.118C23.7109 18.118 24.0527 18.0547 24.372 17.9419C23.1914 17.8453 22.2447 16.4978 22.1614 14.8025L23.8343 13.9603L22.268 13.5188C22.5537 12.243 23.3489 11.2971 24.3083 11.1816C24.0072 11.0857 23.6864 11.0322 23.3433 11.0322Z" fill="#0551D8"/>
</g>
<defs>
<clipPath id="clip0_250_475">
<rect width="32" height="32" fill="white"/>
</clipPath>
</defs>
</svg>
